PathFileType	4	(X/Y/Z)	C:\Github\BTS_project\Data\sports2d_results\Single_Hop4 Exam_2026-03-06_123833_tvc2_Sports2D\Single_Hop4 Exam_2026-03-06_123833_tvc2_Sports2D_px_person00.trc
DataRate	CameraRate	NumFrames	NumMarkers	Units	OrigDataRate	OrigDataStartFrame	OrigNumFrames
30.0	30.0	4	22	m	30.0	0	278
Frame#	Time	Hip			RHip			RKnee			RAnkle			RBigToe			RSmallToe			RHeel			LHip			LKnee			LAnkle			LBigToe			LSmallToe			LHeel			Neck			Head			Nose			RShoulder			RElbow			RWrist			LShoulder			LElbow			LWrist			
		X1	Y1	Z1	X2	Y2	Z2	X3	Y3	Z3	X4	Y4	Z4	X5	Y5	Z5	X6	Y6	Z6	X7	Y7	Z7	X8	Y8	Z8	X9	Y9	Z9	X10	Y10	Z10	X11	Y11	Z11	X12	Y12	Z12	X13	Y13	Z13	X14	Y14	Z14	X15	Y15	Z15	X16	Y16	Z16	X17	Y17	Z17	X18	Y18	Z18	X19	Y19	Z19	X20	Y20	Z20	X21	Y21	Z21	X22	Y22	Z22
0	0.0	396.65645226676884	689.4928023320925	0.0	364.5354512684295	694.3108611382622	0.0	367.747473677154	813.158776593733	0.0	375.77788250720846	925.5826938325048	0.0	367.74742242446376	965.7342949654835	0.0	350.0807586747815	962.5220215592321	0.0	385.4142162031808	940.0372778306507	0.0	428.77753015011626	692.7046128774465	0.0	436.8079617912508	809.9468799756868	0.0	440.0199041013932	925.5828716529741	0.0	448.05036306640403	968.9463422502715	0.0	464.11079026313087	964.1281965886294	0.0	436.8078714408646	941.6434287416969	0.0	390.2324870427796	520.8570833091808	0.0	406.29286808708247	443.7664170037739	0.0	403.08069058460046	506.40252641754194	0.0	329.20230487470445	528.8872501363203	0.0	281.02072284631896	581.8868710588752	0.0	309.92949186840696	647.7353876305233	0.0	449.6562902226917	528.8872351923602	0.0	497.83791142958376	577.0689422184901	0.0	470.5350480967069	634.886740015233	0.0
1	0.033453670276774976	396.8178596115281	689.2729467813398	0.0	364.2828400255564	693.1971594509955	0.0	367.96574212360235	812.9487755075052	0.0	376.0432058477153	925.6733022551913	0.0	368.00604032225704	965.8449984065642	0.0	350.8938094651386	962.6271451632373	0.0	385.7257392817271	940.1693385989117	0.0	429.44874010801396	691.6289435365749	0.0	437.0428027644772	809.6795629306125	0.0	440.8432251293432	925.6655703691832	0.0	448.261673181231	968.909327715683	0.0	464.4762627436615	964.2211952440773	0.0	437.5033184087829	941.2130697444671	0.0	390.55204318403804	521.1369257945111	0.0	406.85394556383176	443.4076753856242	0.0	403.6387366489733	506.4371608382749	0.0	329.3667554894722	528.7950691005757	0.0	281.376145138689	582.1962387486849	0.0	310.8144607059304	648.1062608653044	0.0	449.8322670448287	528.1534699226283	0.0	498.50963507560436	576.8612664367221	0.0	471.2074846383448	635.0665558843662	0.0
2	0.06690734055354995	397.1625047271972	689.1833182649955	0.0	364.2344886475995	692.0821011446083	0.0	368.2646159260291	812.7714301754037	0.0	376.1717859777889	925.8307160010188	0.0	367.74851123863994	965.9506919105271	0.0	351.2860240284534	962.7741370262854	0.0	385.98710780847983	940.3156649565781	0.0	430.45002344081865	690.4037808477731	0.0	437.8193754764145	809.502036644137	0.0	441.7055962849599	926.3708038044388	0.0	448.52919640986363	969.3059280842548	0.0	465.13121402381086	964.3209876201076	0.0	438.00189514167874	941.1634809277182	0.0	391.64737093481574	521.2668508033754	0.0	407.9429567485244	442.6575427112573	0.0	404.9155774328354	506.03243874154623	0.0	330.1616609959194	528.5887255245256	0.0	282.4981230022507	582.3525163687352	0.0	312.5540673798028	649.0593111370115	0.0	450.61060092195623	527.4105753271936	0.0	499.33704474410996	576.6826146846555	0.0	472.4960676242772	635.3131322869131	0.0
3	0.10036101083032492	397.8546900943808	689.2190899363467	0.0	364.62953393410453	691.0245048313734	0.0	368.72604483916183	812.4900965726038	0.0	376.08852238105845	926.0851791722592	0.0	367.00915152968696	966.008319580542	0.0	351.0599564174196	962.9098781755927	0.0	386.0269586877156	940.380808357911	0.0	431.76220057862525	689.0686746911833	0.0	439.07376261365386	809.4385772174694	0.0	442.25760053636793	927.6931112620077	0.0	448.81415801676934	970.2776023444125	0.0	465.70580857934635	964.4397996054437	0.0	438.2285033947278	941.6878107310185	0.0	393.40074784088256	521.3383428348423	0.0	409.80932178947603	441.32649152801775	0.0	407.0338007723754	504.9731442941229	0.0	331.85238482256824	528.2221990198371	0.0	284.301647872289	582.2630484504156	0.0	314.85996214792135	650.3496681064416	0.0	452.0708816157656	527.0244080607926	0.0	500.33351817823745	576.717028626952	0.0	474.4573510958743	635.7490271331758	0.0
